<?xml version="1.0" encoding="UTF-8" standalone="no"?>
<!DOCTYPE svg PUBLIC "-//W3C//DTD SVG 1.1//EN" "http://www.w3.org/Graphics/SVG/1.1/DTD/svg11.dtd">
<svg width="100%" height="100%" viewBox="0 0 1024 471" version="1.1" xmlns="http://www.w3.org/2000/svg" xmlns:xlink="http://www.w3.org/1999/xlink" xml:space="preserve" xmlns:serif="http://www.serif.com/" style="fill-rule:evenodd;clip-rule:evenodd;stroke-linecap:round;stroke-linejoin:round;stroke-miterlimit:1.5;">
    <g transform="matrix(1,0,0,1,0,-626)">
        <g id="Artboard2" transform="matrix(1,0,0,1,0,-0.225452)">
            <rect x="0" y="626.225" width="1024" height="470.157" style="fill:none;"/>
            <g transform="matrix(0.296368,0,0,0.296368,38.8475,645.391)">
                <path d="M87.032,376.919L148.046,225.934L187.344,225.934L200.788,376.919L169.97,376.919L168.109,342.792L132.121,342.792L119.504,376.919L87.032,376.919ZM141.221,317.973L166.661,317.973L165.213,281.571C165.075,276.331 164.834,271.126 164.489,265.956C164.145,260.785 163.903,256.752 163.765,253.856C162.8,256.752 161.525,260.75 159.939,265.852C158.353,270.954 156.595,276.125 154.665,281.364L141.221,317.973Z" style="fill:rgb(128,128,128);fill-rule:nonzero;"/>
                <path d="M346.602,376.919L350.945,350.031L380.936,350.031L396.241,252.822L366.251,252.822L370.594,225.934L461.599,225.934L457.255,252.822L427.265,252.822L411.96,350.031L441.95,350.031L437.607,376.919L346.602,376.919Z" style="fill:rgb(128,128,128);fill-rule:nonzero;"/>
                <path d="M467.804,376.919L485.798,263.163L515.788,263.163L512.272,284.88L513.099,284.88C515.581,277.435 519.787,271.609 525.716,267.403C531.645,263.198 538.677,261.095 546.812,261.095C557.843,261.095 566.082,264.956 571.528,272.677C576.975,280.399 578.664,290.672 576.596,303.495L565.013,376.919L533.989,376.919L545.158,306.597C546.123,300.668 545.296,296.084 542.676,292.843C540.056,289.603 535.919,287.983 530.266,287.983C524.751,287.983 520.235,289.603 516.719,292.843C513.203,296.084 510.962,300.668 509.997,306.597L498.828,376.919L467.804,376.919Z" style="fill:rgb(128,128,128);fill-rule:nonzero;"/>
                <path d="M635.128,378.987C621.064,378.987 610.24,375.747 602.656,369.266C595.072,362.786 592.108,354.306 593.762,343.827L624.787,343.827C624.235,347.136 625.304,349.79 627.993,351.789C630.681,353.789 634.37,354.788 639.058,354.788L648.158,354.788C659.741,354.788 666.152,350.859 667.393,342.999C667.945,339.552 667.118,336.794 664.911,334.726C662.705,332.658 658.913,331.279 653.536,330.59L640.506,328.935C626.717,327.142 616.893,323.799 611.033,318.904C605.172,314.009 603.07,306.322 604.724,295.842C606.517,284.811 611.688,276.263 620.236,270.196C628.785,264.129 640.368,261.095 654.984,261.095L662.843,261.095C676.77,261.095 687.387,264.129 694.695,270.196C702.003,276.263 704.829,284.398 703.175,294.601L672.15,294.601C672.564,291.844 671.564,289.603 669.151,287.879C666.738,286.156 663.326,285.294 658.913,285.294L651.054,285.294C645.952,285.294 642.091,286.156 639.472,287.879C636.852,289.603 635.266,292.188 634.714,295.635C634.163,298.807 634.749,301.323 636.473,303.185C638.196,305.046 641.402,306.322 646.09,307.011L660.154,308.873C674.219,310.665 684.353,314.147 690.558,319.317C696.763,324.488 699.038,332.382 697.384,342.999C695.591,354.582 690.179,363.475 681.148,369.68C672.116,375.885 659.81,378.987 644.229,378.987L635.128,378.987Z" style="fill:rgb(128,128,128);fill-rule:nonzero;"/>
                <path d="M776.806,376.919C765.223,376.919 756.674,373.61 751.159,366.991C745.644,360.373 743.782,351.272 745.575,339.69L753.227,291.085L723.237,291.085L727.581,263.163L757.571,263.163L762.535,232.139L793.559,232.139L788.595,263.163L830.995,263.163L826.652,291.085L784.252,291.085L776.599,339.69C775.496,345.895 778.047,348.997 784.252,348.997L815.276,348.997L810.933,376.919L776.806,376.919Z" style="fill:rgb(128,128,128);fill-rule:nonzero;"/>
                <path d="M876.29,378.987C864.846,378.987 856.297,374.989 850.644,366.991C844.99,358.994 843.267,348.17 845.473,334.519L850.23,305.563C852.574,292.05 857.779,281.261 865.846,273.195C873.912,265.128 883.667,261.095 895.112,261.095C903.247,261.095 909.555,263.129 914.037,267.197C918.518,271.264 920.828,277.159 920.965,284.88L921.379,284.88L924.068,263.163L954.885,263.163L936.891,376.919L906.901,376.919L910.417,355.202L909.797,355.202C907.315,362.786 903.144,368.646 897.284,372.783C891.423,376.919 884.426,378.987 876.29,378.987ZM891.803,352.1C897.456,352.1 902.11,350.48 905.764,347.239C909.418,343.999 911.727,339.414 912.692,333.485L917.036,306.597C918.001,300.668 917.139,296.084 914.45,292.843C911.762,289.603 907.591,287.983 901.937,287.983C896.146,287.983 891.458,289.603 887.873,292.843C884.288,296.084 882.013,300.668 881.047,306.597L876.704,333.485C875.739,339.414 876.566,343.999 879.186,347.239C881.806,350.48 886.011,352.1 891.803,352.1Z" style="fill:rgb(128,128,128);fill-rule:nonzero;"/>
                <path d="M964.193,376.919L982.187,263.163L1012.18,263.163L1008.66,284.88L1009.49,284.88C1011.97,277.435 1016.18,271.609 1022.11,267.403C1028.03,263.198 1035.07,261.095 1043.2,261.095C1054.23,261.095 1062.47,264.956 1067.92,272.677C1073.36,280.399 1075.05,290.672 1072.99,303.495L1061.4,376.919L1030.38,376.919L1041.55,306.597C1042.51,300.668 1041.68,296.084 1039.07,292.843C1036.44,289.603 1032.31,287.983 1026.65,287.983C1021.14,287.983 1016.62,289.603 1013.11,292.843C1009.59,296.084 1007.35,300.668 1006.39,306.597L995.217,376.919L964.193,376.919Z" style="fill:rgb(128,128,128);fill-rule:nonzero;"/>
                <path d="M1136.89,378.987C1126.83,378.987 1118.32,377.092 1111.35,373.3C1104.39,369.508 1099.39,364.199 1096.36,357.374C1093.32,350.548 1092.5,342.586 1093.87,333.485L1098.22,306.597C1099.73,297.359 1103.11,289.362 1108.35,282.605C1113.59,275.849 1120.28,270.575 1128.41,266.783C1136.55,262.991 1145.65,261.095 1155.72,261.095C1170.75,261.095 1182.12,264.887 1189.84,272.471C1197.56,280.054 1200.67,290.396 1199.15,303.495L1168.13,303.495C1168.54,298.669 1167.26,294.877 1164.3,292.119C1161.34,289.362 1157.03,287.983 1151.37,287.983C1138.55,287.983 1131.17,294.188 1129.24,306.597L1124.9,333.485C1123.93,339.414 1124.86,343.999 1127.69,347.239C1130.52,350.48 1135.03,352.1 1141.24,352.1C1146.89,352.1 1151.61,350.755 1155.41,348.067C1159.2,345.378 1161.71,341.551 1162.95,336.588L1193.98,336.588C1191.36,349.687 1184.95,360.028 1174.74,367.612C1164.54,375.196 1151.92,378.987 1136.89,378.987Z" style="fill:rgb(128,128,128);fill-rule:nonzero;"/>
                <path d="M1260.58,378.987C1250.51,378.987 1242.03,377.092 1235.14,373.3C1228.24,369.508 1223.32,364.199 1220.35,357.374C1217.38,350.548 1216.59,342.586 1217.97,333.485L1222.32,306.597C1223.83,297.497 1227.17,289.534 1232.35,282.709C1237.52,275.883 1244.13,270.575 1252.2,266.783C1260.27,262.991 1269.33,261.095 1279.4,261.095C1289.46,261.095 1297.91,262.991 1304.74,266.783C1311.56,270.575 1316.46,275.883 1319.42,282.709C1322.39,289.534 1323.11,297.497 1321.59,306.597L1318.28,327.28L1248.58,327.28L1247.55,333.485C1245.2,347.963 1251,355.202 1264.92,355.202C1269.75,355.202 1273.78,354.375 1277.02,352.72C1280.26,351.066 1282.57,348.79 1283.95,345.895L1314.35,345.895C1311.73,352.513 1307.74,358.305 1302.36,363.268C1296.98,368.232 1290.74,372.093 1283.64,374.851C1276.54,377.609 1268.85,378.987 1260.58,378.987ZM1251.89,306.597L1251.27,309.7L1291.6,309.286L1292.02,306.184C1294.36,291.706 1288.91,284.467 1275.68,284.467C1268.92,284.467 1263.54,286.397 1259.54,290.258C1255.55,294.119 1253,299.565 1251.89,306.597Z" style="fill:rgb(128,128,128);fill-rule:nonzero;"/>
                <path d="M1508.57,378.987C1498.5,378.987 1490.06,377.092 1483.23,373.3C1476.4,369.508 1471.51,364.199 1468.55,357.374C1465.58,350.548 1464.79,342.586 1466.17,333.485L1470.51,306.597C1472.03,297.497 1475.34,289.534 1480.44,282.709C1485.54,275.883 1492.12,270.575 1500.19,266.783C1508.26,262.991 1517.32,261.095 1527.39,261.095C1537.59,261.095 1546.11,262.991 1552.93,266.783C1559.76,270.575 1564.65,275.883 1567.62,282.709C1570.58,289.534 1571.3,297.497 1569.79,306.597L1565.44,333.485C1564.07,342.586 1560.79,350.548 1555.62,357.374C1550.45,364.199 1543.87,369.508 1535.87,373.3C1527.87,377.092 1518.77,378.987 1508.57,378.987ZM1512.91,352.1C1525.32,352.1 1532.49,345.895 1534.42,333.485L1538.76,306.597C1539.73,300.53 1538.87,295.911 1536.18,292.74C1533.49,289.568 1529.11,287.983 1523.04,287.983C1510.63,287.983 1503.46,294.188 1501.53,306.597L1497.19,333.485C1496.23,339.414 1497.12,343.999 1499.88,347.239C1502.64,350.48 1506.98,352.1 1512.91,352.1Z" style="fill:rgb(128,128,128);fill-rule:nonzero;"/>
                <path d="M1567.72,414.148L1571.65,389.329L1591.92,389.329C1597.43,389.329 1601.95,387.881 1605.47,384.985C1608.98,382.09 1611.15,378.091 1611.98,372.989L1622.74,304.529L1592.54,304.529L1597.09,276.607L1627.29,276.607L1629.77,261.095C1630.87,254.063 1633.49,247.892 1637.63,242.584C1641.76,237.275 1647,233.173 1653.35,230.278C1659.69,227.382 1666.79,225.934 1674.65,225.934L1707.95,225.934L1703.61,252.822L1671.34,252.822C1668.58,252.822 1666.2,253.684 1664.2,255.407C1662.2,257.131 1661,259.371 1660.59,262.129L1658.31,276.607L1699.88,276.607L1695.33,304.529L1653.76,304.529L1642.8,374.024C1640.87,386.433 1635.08,396.223 1625.42,403.393C1615.77,410.563 1603.64,414.148 1589.02,414.148L1567.72,414.148Z" style="fill:rgb(128,128,128);fill-rule:nonzero;"/>
                <path d="M1832.87,376.919L1856.87,225.934L1887.89,225.934L1878.58,283.846L1913.33,283.846L1922.64,225.934L1953.66,225.934L1929.67,376.919L1898.64,376.919L1908.78,312.802L1874.03,312.802L1863.9,376.919L1832.87,376.919Z" style="fill:rgb(128,128,128);fill-rule:nonzero;"/>
                <path d="M1993.17,378.987C1981.72,378.987 1973.17,374.989 1967.52,366.991C1961.87,358.994 1960.14,348.17 1962.35,334.519L1967.11,305.563C1969.45,292.05 1974.65,281.261 1982.72,273.195C1990.79,265.128 2000.54,261.095 2011.99,261.095C2020.12,261.095 2026.43,263.129 2030.91,267.197C2035.39,271.264 2037.7,277.159 2037.84,284.88L2038.25,284.88L2040.94,263.163L2071.76,263.163L2053.77,376.919L2023.78,376.919L2027.29,355.202L2026.67,355.202C2024.19,362.786 2020.02,368.646 2014.16,372.783C2008.3,376.919 2001.3,378.987 1993.17,378.987ZM2008.68,352.1C2014.33,352.1 2018.99,350.48 2022.64,347.239C2026.29,343.999 2028.6,339.414 2029.57,333.485L2033.91,306.597C2034.88,300.668 2034.01,296.084 2031.33,292.843C2028.64,289.603 2024.47,287.983 2018.81,287.983C2013.02,287.983 2008.33,289.603 2004.75,292.843C2001.16,296.084 1998.89,300.668 1997.92,306.597L1993.58,333.485C1992.61,339.414 1993.44,343.999 1996.06,347.239C1998.68,350.48 2002.89,352.1 2008.68,352.1Z" style="fill:rgb(128,128,128);fill-rule:nonzero;"/>
                <path d="M2129.67,378.987C2119.61,378.987 2111.09,377.092 2104.13,373.3C2097.17,369.508 2092.17,364.199 2089.13,357.374C2086.1,350.548 2085.27,342.586 2086.65,333.485L2091,306.597C2092.51,297.359 2095.89,289.362 2101.13,282.605C2106.37,275.849 2113.06,270.575 2121.19,266.783C2129.33,262.991 2138.43,261.095 2148.49,261.095C2163.52,261.095 2174.9,264.887 2182.62,272.471C2190.34,280.054 2193.45,290.396 2191.93,303.495L2160.9,303.495C2161.32,298.669 2160.04,294.877 2157.08,292.119C2154.11,289.362 2149.8,287.983 2144.15,287.983C2131.33,287.983 2123.95,294.188 2122.02,306.597L2117.68,333.485C2116.71,339.414 2117.64,343.999 2120.47,347.239C2123.3,350.48 2127.81,352.1 2134.02,352.1C2139.67,352.1 2144.39,350.755 2148.18,348.067C2151.98,345.378 2154.49,341.551 2155.73,336.588L2186.76,336.588C2184.14,349.687 2177.73,360.028 2167.52,367.612C2157.32,375.196 2144.7,378.987 2129.67,378.987Z" style="fill:rgb(128,128,128);fill-rule:nonzero;"/>
                <path d="M2205.79,376.919L2229.78,225.934L2260.8,225.934L2247.98,306.184L2262.66,306.184L2293.27,263.163L2328.43,263.163L2287.48,320.248L2311.06,376.919L2277.35,376.919L2259.97,332.244L2243.84,332.244L2236.81,376.919L2205.79,376.919Z" style="fill:rgb(128,128,128);fill-rule:nonzero;"/>
                <path d="M2377.25,378.987C2370.9,378.987 2366.15,377.092 2362.97,373.3C2359.8,369.508 2358.7,364.44 2359.67,358.098C2360.77,351.617 2363.49,346.515 2367.84,342.792C2372.18,339.07 2377.52,337.208 2383.87,337.208C2390.35,337.208 2395.17,339.07 2398.34,342.792C2401.51,346.515 2402.55,351.617 2401.45,358.098C2400.48,364.44 2397.83,369.508 2393.48,373.3C2389.14,377.092 2383.73,378.987 2377.25,378.987Z" style="fill:rgb(128,128,128);fill-rule:nonzero;"/>
                <path d="M2502.17,378.987C2492.11,378.987 2483.56,377.092 2476.52,373.3C2469.49,369.508 2464.46,364.199 2461.43,357.374C2458.39,350.548 2457.57,342.586 2458.94,333.485L2469.08,269.368C2470.6,260.13 2473.97,252.132 2479.21,245.376C2484.45,238.62 2491.18,233.346 2499.38,229.554C2507.58,225.762 2516.72,223.866 2526.78,223.866C2536.99,223.866 2545.54,225.762 2552.43,229.554C2559.33,233.346 2564.36,238.62 2567.53,245.376C2570.7,252.132 2571.53,260.13 2570.01,269.368L2538.99,269.368C2540.09,263.301 2539.19,258.682 2536.3,255.511C2533.4,252.339 2528.85,250.754 2522.65,250.754C2516.44,250.754 2511.41,252.339 2507.55,255.511C2503.69,258.682 2501.21,263.301 2500.1,269.368L2489.97,333.485C2489,339.414 2489.97,343.999 2492.86,347.239C2495.76,350.48 2500.31,352.1 2506.51,352.1C2512.72,352.1 2517.75,350.48 2521.61,347.239C2525.47,343.999 2527.89,339.414 2528.85,333.485L2559.88,333.485C2558.5,342.586 2555.15,350.548 2549.85,357.374C2544.54,364.199 2537.82,369.508 2529.68,373.3C2521.54,377.092 2512.38,378.987 2502.17,378.987Z" style="fill:rgb(128,128,128);fill-rule:nonzero;"/>
                <path d="M2577.46,376.919L2601.45,225.934L2632.47,225.934L2626.47,263.163L2621.93,284.88L2622.75,284.88C2625.23,277.435 2629.44,271.609 2635.37,267.403C2641.3,263.198 2648.33,261.095 2656.47,261.095C2667.5,261.095 2675.74,264.956 2681.18,272.677C2686.63,280.399 2688.32,290.672 2686.25,303.495L2674.67,376.919L2643.64,376.919L2654.81,306.597C2655.78,300.668 2654.95,296.084 2652.33,292.843C2649.71,289.603 2645.57,287.983 2639.92,287.983C2634.4,287.983 2629.89,289.603 2626.37,292.843C2622.86,296.084 2620.62,300.668 2619.65,306.597L2608.48,376.919L2577.46,376.919Z" style="fill:rgb(128,128,128);fill-rule:nonzero;"/>
                <path d="M2737.75,378.987C2726.3,378.987 2717.76,374.989 2712.1,366.991C2706.45,358.994 2704.72,348.17 2706.93,334.519L2711.69,305.563C2714.03,292.05 2719.24,281.261 2727.3,273.195C2735.37,265.128 2745.13,261.095 2756.57,261.095C2764.71,261.095 2771.01,263.129 2775.49,267.197C2779.98,271.264 2782.29,277.159 2782.42,284.88L2782.84,284.88L2785.53,263.163L2816.34,263.163L2798.35,376.919L2768.36,376.919L2771.88,355.202L2771.26,355.202C2768.77,362.786 2764.6,368.646 2758.74,372.783C2752.88,376.919 2745.88,378.987 2737.75,378.987ZM2753.26,352.1C2758.91,352.1 2763.57,350.48 2767.22,347.239C2770.88,343.999 2773.19,339.414 2774.15,333.485L2778.49,306.597C2779.46,300.668 2778.6,296.084 2775.91,292.843C2773.22,289.603 2769.05,287.983 2763.4,287.983C2757.61,287.983 2752.92,289.603 2749.33,292.843C2745.75,296.084 2743.47,300.668 2742.51,306.597L2738.16,333.485C2737.2,339.414 2738.03,343.999 2740.64,347.239C2743.26,350.48 2747.47,352.1 2753.26,352.1Z" style="fill:rgb(128,128,128);fill-rule:nonzero;"/>
                <path d="M2886.46,376.919C2874.88,376.919 2866.33,373.61 2860.81,366.991C2855.3,360.373 2853.43,351.272 2855.23,339.69L2862.88,291.085L2832.89,291.085L2837.23,263.163L2867.22,263.163L2872.19,232.139L2903.21,232.139L2898.25,263.163L2940.65,263.163L2936.3,291.085L2893.91,291.085L2886.25,339.69C2885.15,345.895 2887.7,348.997 2893.91,348.997L2924.93,348.997L2920.59,376.919L2886.46,376.919Z" style="fill:rgb(128,128,128);fill-rule:nonzero;"/>
                <path d="M964.193,583.748L988.185,432.763L1019.21,432.763L1009.9,490.675L1044.65,490.675L1053.96,432.763L1084.98,432.763L1060.99,583.748L1029.96,583.748L1040.1,519.631L1005.35,519.631L995.217,583.748L964.193,583.748Z" style="fill:rgb(128,128,128);fill-rule:nonzero;"/>
                <path d="M1136.27,585.816C1126.21,585.816 1117.76,583.92 1110.94,580.128C1104.11,576.337 1099.22,571.028 1096.25,564.203C1093.29,557.377 1092.5,549.414 1093.87,540.314L1098.22,513.426C1099.73,504.326 1103.04,496.363 1108.14,489.537C1113.25,482.712 1119.83,477.403 1127.9,473.612C1135.96,469.82 1145.03,467.924 1155.1,467.924C1165.3,467.924 1173.81,469.82 1180.64,473.612C1187.46,477.403 1192.36,482.712 1195.32,489.537C1198.29,496.363 1199.01,504.326 1197.5,513.426L1193.15,540.314C1191.77,549.414 1188.5,557.377 1183.33,564.203C1178.16,571.028 1171.57,576.337 1163.58,580.128C1155.58,583.92 1146.48,585.816 1136.27,585.816ZM1140.62,558.928C1153.03,558.928 1160.2,552.724 1162.13,540.314L1166.47,513.426C1167.44,507.359 1166.58,502.74 1163.89,499.569C1161.2,496.397 1156.82,494.812 1150.75,494.812C1138.34,494.812 1131.17,501.016 1129.24,513.426L1124.9,540.314C1123.93,546.243 1124.83,550.828 1127.59,554.068C1130.35,557.308 1134.69,558.928 1140.62,558.928Z" style="fill:rgb(128,128,128);fill-rule:nonzero;"/>
                <path d="M1255.61,585.816C1241.55,585.816 1230.73,582.576 1223.14,576.095C1215.56,569.615 1212.59,561.135 1214.25,550.655L1245.27,550.655C1244.72,553.965 1245.79,556.619 1248.48,558.618C1251.17,560.618 1254.86,561.617 1259.54,561.617L1268.64,561.617C1280.23,561.617 1286.64,557.687 1287.88,549.828C1288.43,546.381 1287.6,543.623 1285.4,541.555C1283.19,539.487 1279.4,538.108 1274.02,537.418L1260.99,535.764C1247.2,533.971 1237.38,530.627 1231.52,525.732C1225.66,520.837 1223.56,513.15 1225.21,502.671C1227,491.64 1232.17,483.091 1240.72,477.024C1249.27,470.957 1260.85,467.924 1275.47,467.924L1283.33,467.924C1297.26,467.924 1307.87,470.957 1315.18,477.024C1322.49,483.091 1325.32,491.227 1323.66,501.43L1292.64,501.43C1293.05,498.672 1292.05,496.432 1289.64,494.708C1287.23,492.985 1283.81,492.123 1279.4,492.123L1271.54,492.123C1266.44,492.123 1262.58,492.985 1259.96,494.708C1257.34,496.432 1255.75,499.017 1255.2,502.464C1254.65,505.636 1255.24,508.152 1256.96,510.013C1258.68,511.875 1261.89,513.15 1266.58,513.84L1280.64,515.701C1294.7,517.494 1304.84,520.975 1311.04,526.146C1317.25,531.317 1319.52,539.211 1317.87,549.828C1316.08,561.41 1310.66,570.304 1301.63,576.509C1292.6,582.714 1280.3,585.816 1264.71,585.816L1255.61,585.816Z" style="fill:rgb(128,128,128);fill-rule:nonzero;"/>
                <path d="M1397.29,583.748C1385.71,583.748 1377.16,580.439 1371.64,573.82C1366.13,567.202 1364.27,558.101 1366.06,546.519L1373.71,497.914L1343.72,497.914L1348.07,469.992L1378.06,469.992L1383.02,438.968L1414.05,438.968L1409.08,469.992L1451.48,469.992L1447.14,497.914L1404.74,497.914L1397.09,546.519C1395.98,552.724 1398.53,555.826 1404.74,555.826L1435.76,555.826L1431.42,583.748L1397.29,583.748Z" style="fill:rgb(128,128,128);fill-rule:nonzero;"/>
                <path d="M1508.77,585.816C1498.71,585.816 1490.23,583.92 1483.33,580.128C1476.44,576.337 1471.51,571.028 1468.55,564.203C1465.58,557.377 1464.79,549.414 1466.17,540.314L1470.51,513.426C1472.03,504.326 1475.37,496.363 1480.54,489.537C1485.71,482.712 1492.33,477.403 1500.4,473.612C1508.46,469.82 1517.53,467.924 1527.59,467.924C1537.66,467.924 1546.11,469.82 1552.93,473.612C1559.76,477.403 1564.65,482.712 1567.62,489.537C1570.58,496.363 1571.3,504.326 1569.79,513.426L1566.48,534.109L1496.78,534.109L1495.74,540.314C1493.4,554.792 1499.19,562.031 1513.12,562.031C1517.94,562.031 1521.98,561.204 1525.22,559.549C1528.46,557.894 1530.77,555.619 1532.14,552.724L1562.55,552.724C1559.93,559.342 1555.93,565.133 1550.55,570.097C1545.17,575.061 1538.93,578.922 1531.83,581.68C1524.73,584.437 1517.05,585.816 1508.77,585.816ZM1500.09,513.426L1499.46,516.529L1539.8,516.115L1540.21,513.012C1542.56,498.534 1537.11,491.295 1523.87,491.295C1517.12,491.295 1511.74,493.226 1507.74,497.087C1503.74,500.947 1501.19,506.394 1500.09,513.426Z" style="fill:rgb(128,128,128);fill-rule:nonzero;"/>
                <path d="M1620.87,585.816C1609.43,585.816 1600.91,581.817 1595.33,573.82C1589.75,565.823 1587.99,554.999 1590.06,541.348L1594.81,512.392C1596.19,503.292 1598.99,495.432 1603.19,488.814C1607.4,482.195 1612.63,477.059 1618.91,473.405C1625.18,469.751 1632.11,467.924 1639.69,467.924C1647.83,467.924 1654.14,469.958 1658.62,474.025C1663.1,478.093 1665.41,483.988 1665.55,491.709L1665.96,491.709L1669.48,463.787L1674.44,432.763L1705.47,432.763L1681.48,583.748L1651.49,583.748L1655,562.031L1654.38,562.031C1651.9,569.615 1647.73,575.475 1641.87,579.611C1636.01,583.748 1629.01,585.816 1620.87,585.816ZM1636.39,558.928C1642.04,558.928 1646.69,557.308 1650.35,554.068C1654,550.828 1656.31,546.243 1657.28,540.314L1661.62,513.426C1662.58,507.497 1661.72,502.912 1659.03,499.672C1656.35,496.432 1652.17,494.812 1646.52,494.812C1640.73,494.812 1636.04,496.432 1632.46,499.672C1628.87,502.912 1626.6,507.497 1625.63,513.426L1621.29,540.314C1620.32,546.243 1621.15,550.828 1623.77,554.068C1626.39,557.308 1630.6,558.928 1636.39,558.928Z" style="fill:rgb(128,128,128);fill-rule:nonzero;"/>
                <path d="M1832.87,583.748L1856.87,432.763L1905.47,432.763C1920.78,432.763 1932.43,436.245 1940.42,443.208C1948.42,450.171 1951.45,459.582 1949.53,471.44C1948.56,478.058 1946.11,483.85 1942.18,488.814C1938.25,493.777 1933.5,497.638 1927.91,500.396C1922.33,503.154 1916.5,504.532 1910.43,504.532L1910.23,505.153C1916.98,505.015 1922.95,506.256 1928.12,508.876C1933.29,511.496 1937.18,515.425 1939.8,520.665C1942.42,525.905 1943.11,532.385 1941.87,540.107C1940.49,548.932 1937.18,556.619 1931.94,563.168C1926.7,569.718 1919.95,574.785 1911.67,578.37C1903.4,581.955 1893.96,583.748 1883.34,583.748L1832.87,583.748ZM1877.13,493.571L1895.34,493.571C1901.4,493.571 1906.4,491.95 1910.33,488.71C1914.26,485.47 1916.71,481.092 1917.67,475.576C1918.5,469.923 1917.43,465.545 1914.47,462.443C1911.5,459.34 1906.99,457.789 1900.92,457.789L1882.72,457.789L1877.13,493.571ZM1866.79,558.722L1886.03,558.722C1892.79,558.722 1898.4,556.929 1902.88,553.344C1907.37,549.759 1910.09,544.795 1911.06,538.452C1912.02,532.11 1910.85,527.111 1907.54,523.457C1904.23,519.803 1899.2,517.976 1892.44,517.976L1873.2,517.976L1866.79,558.722Z" style="fill:rgb(128,128,128);fill-rule:nonzero;"/>
                <path d="M1966.28,620.977L1970.21,596.158L2002.27,596.158C2008.06,596.158 2012.78,594.71 2016.43,591.814C2020.09,588.919 2022.26,584.92 2022.95,579.818L2023.57,575.475L2027.5,551.689L2026.67,551.689C2024.19,559.135 2019.98,564.961 2014.06,569.166C2008.13,573.372 2001.09,575.475 1992.96,575.475C1981.93,575.475 1973.69,571.614 1968.24,563.892C1962.8,556.171 1961.11,545.898 1963.17,533.075L1973.1,469.992L2004.13,469.992L1994.61,529.972C1993.65,535.902 1994.51,540.486 1997.2,543.727C1999.89,546.967 2003.99,548.587 2009.51,548.587C2015.02,548.587 2019.54,546.967 2023.05,543.727C2026.57,540.486 2028.81,535.902 2029.77,529.972L2039.29,469.992L2070.31,469.992L2053.15,580.852C2051.22,593.262 2045.42,603.052 2035.77,610.222C2026.12,617.392 2013.99,620.977 1999.37,620.977L1966.28,620.977Z" style="fill:rgb(128,128,128);fill-rule:nonzero;"/>
            </g>
            <g id="vitruvian_steve_whitw.svg" transform="matrix(0.167222,0,0,0.167222,91.37,937.312)">
                <g transform="matrix(1,0,0,1,-512,-512)">
                    <g>
                        <g transform="matrix(1.93813,0,0,1.93813,-480.32,-586.679)">
                            <path d="M512.445,634.021C512.716,639.446 513.085,647.073 513.476,655.882C514.086,669.601 514.819,686.128 515.327,701.646C515.694,712.858 515.939,723.513 516.092,732.155C516.253,741.291 516.289,748.164 516.296,751.029L516.299,752.494L507.701,752.494C507.701,752.494 507.694,744.336 507.908,732.155C508.061,723.513 508.306,712.858 508.673,701.646C509.181,686.128 509.914,669.601 510.524,655.882C511.306,638.263 512,625.373 512,625.373C512,625.373 512.043,626.179 512.121,627.663L512.445,634.021Z" style="fill:white;"/>
                        </g>
                        <g transform="matrix(1.13601,1.57029,1.57029,-1.13601,-958.085,383.664)">
                            <path d="M508.043,756.835L508.042,756.84L514.337,758.236L514.338,758.23L514.401,757.931L514.767,756.181L514.781,756.11C515.754,751.407 516.639,746.682 517.387,741.937C518.29,736.326 519.038,730.687 519.601,725.038C520.717,713.835 521.172,702.608 520.996,691.503C520.731,674.823 519.035,658.453 516.015,642.843C514.871,636.897 513.53,631.064 512,625.373C516.159,646.194 517.574,668.609 516.688,691.453C516.264,702.378 515.295,713.383 513.843,724.371C513.506,726.918 513.146,729.463 512.759,732.007C512.475,733.814 512.178,735.62 511.867,737.423C510.748,743.918 509.516,750.401 508.046,756.823L508.043,756.835Z" style="fill:white;"/>
                        </g>
                        <g transform="matrix(-1.13601,1.57029,-1.57029,-1.13601,1982.09,383.664)">
                            <path d="M508.043,756.835L508.046,756.823C509.516,750.401 510.748,743.918 511.867,737.423C512.178,735.62 512.475,733.814 512.759,732.007C513.146,729.463 513.506,726.917 513.843,724.37C515.295,713.383 516.264,702.378 516.688,691.453C517.574,668.609 516.159,646.194 512,625.373C513.53,631.064 514.871,636.897 516.015,642.843C519.035,658.453 520.731,674.823 520.996,691.503C521.172,702.608 520.717,713.835 519.601,725.038C519.038,730.686 518.291,736.324 517.387,741.937C516.639,746.682 515.754,751.407 514.781,756.11L514.767,756.181L514.401,757.931L514.338,758.23L514.337,758.236L508.042,756.84L508.043,756.835Z" style="fill:white;"/>
                        </g>
                        <g transform="matrix(-0.973649,1.67581,-1.67581,-0.973649,2008.93,152.402)">
                            <path d="M507.977,755.992C508.001,753.013 508.072,745.868 508.251,736.371C508.42,727.389 508.672,716.309 509.019,704.655C509.498,688.533 510.154,671.341 510.698,657.085C511.397,638.783 512,625.373 512,625.373C512,625.373 512.439,638.789 512.913,657.099C513.282,671.36 513.727,688.559 514.009,704.686C514.213,716.343 514.329,727.425 514.388,736.408C514.472,749.074 514.414,757.555 514.414,757.555L507.966,757.515L507.977,755.992Z" style="fill:white;"/>
                        </g>
                        <g transform="matrix(0.973649,1.67581,1.67581,-0.973649,-984.935,152.402)">
                            <path d="M512,625.373C512,625.373 511.397,638.783 510.698,657.085C510.154,671.341 509.498,688.533 509.019,704.655C508.672,716.309 508.42,727.389 508.251,736.37C508.012,749.034 507.966,757.515 507.966,757.515L514.414,757.555C514.414,757.555 514.472,749.074 514.388,736.408C514.329,727.425 514.213,716.343 514.009,704.686C513.727,688.559 513.282,671.36 512.913,657.099C512.439,638.789 512,625.373 512,625.373Z" style="fill:white;"/>
                        </g>
                        <g transform="matrix(-1.93813,-2.22045e-16,-2.22045e-16,1.93813,1440.25,-602.27)">
                            <path d="M524.232,558.762C528.416,576.746 528.345,606.681 526.033,638.528C525.173,650.381 524.002,662.491 522.632,674.353C521.327,685.648 519.824,696.707 518.226,707.089C516.743,716.563 515.167,725.485 513.557,733.519C511.754,742.509 509.937,750.383 508.093,756.638L514.28,758.453L514.286,758.432L514.286,758.433L514.293,758.408C517.685,746.695 521.12,729.089 523.82,708.834C525.903,693.216 527.571,676.025 528.624,658.792C529.271,648.205 529.687,637.607 529.83,627.348C530.278,599.512 528.698,574.276 524.232,558.762Z" style="fill:white;"/>
                        </g>
                        <g transform="matrix(1.93813,-2.22045e-16,2.22045e-16,1.93813,-416.253,-602.27)">
                            <path d="M524.232,558.762C528.698,574.276 530.278,599.512 529.83,627.348C529.687,637.607 529.271,648.205 528.624,658.792C527.571,676.025 525.903,693.216 523.82,708.834C521.12,729.089 517.685,746.695 514.293,758.408L514.286,758.433L514.286,758.432L514.28,758.453L508.093,756.638C509.937,750.383 511.754,742.509 513.557,733.519C515.167,725.485 516.743,716.562 518.226,707.088C519.824,696.706 521.327,685.648 522.632,674.353C524.002,662.491 525.173,650.381 526.033,638.528C528.345,606.681 528.416,576.746 524.232,558.762Z" style="fill:white;"/>
                        </g>
                    </g>
                    <g>
                        <g transform="matrix(-1.75968,-0.812311,-0.812311,1.75968,1902.54,-58.7281)">
                            <path d="M512.088,629.343C512.482,649.188 512.15,669.012 511.406,688.937C511.013,699.481 510.481,710.02 509.866,720.598C509.613,724.944 509.358,729.295 509.08,733.651C508.64,739.8 508.239,745.978 507.713,752.178L507.713,752.18L516.287,752.81L516.287,752.803C516.688,746.393 517.075,740.014 517.27,733.656L517.339,731.239C517.457,727.781 517.544,724.326 517.589,720.873C517.731,710.197 517.565,699.557 517.15,688.932C516.37,668.945 514.668,649.121 512.45,629.331L512,625.373L512.088,629.343Z" style="fill:white;"/>
                        </g>
                        <g transform="matrix(1.75968,-0.812311,0.812311,1.75968,-878.538,-58.7281)">
                            <path d="M512.45,629.331C514.668,649.121 516.37,668.945 517.15,688.932C517.565,699.557 517.731,710.197 517.589,720.873C517.544,724.327 517.457,727.781 517.339,731.238L517.27,733.656C517.075,740.014 516.688,746.393 516.287,752.803L516.287,752.81L507.713,752.18L507.713,752.178C508.239,745.978 508.64,739.8 509.08,733.651C509.358,729.297 509.613,724.945 509.866,720.598C510.481,710.02 511.013,699.481 511.406,688.937C512.15,669.012 512.482,649.188 512.088,629.343L512,625.373L512.45,629.331Z" style="fill:white;"/>
                        </g>
                        <g transform="matrix(1.80811,-0.697895,0.697895,1.80811,-764.4,-186.417)">
                            <path d="M512,625.373C516.476,645.436 519.061,666.96 519.575,688.867C519.599,689.744 519.619,690.622 519.635,691.501C519.839,702.631 519.519,713.821 518.649,724.918C518.366,728.527 518.018,732.126 517.612,735.708C517.521,736.553 517.426,737.399 517.328,738.244C516.553,744.937 515.517,751.568 514.36,758.121L514.36,758.122L508.02,756.949L508.02,756.948L508.021,756.94C509.252,750.563 510.281,744.096 511.23,737.589C511.843,733.205 512.387,728.796 512.878,724.372C514.09,713.451 514.927,702.443 515.327,691.462C516.151,668.846 515.2,646.418 512,625.373Z" style="fill:white;"/>
                        </g>
                        <g transform="matrix(-1.80811,-0.697895,-0.697895,1.80811,1788.4,-186.417)">
                            <path d="M512,625.373C515.2,646.418 516.151,668.846 515.327,691.462C514.927,702.443 514.09,713.451 512.878,724.372C512.387,728.796 511.843,733.205 511.23,737.589C510.281,744.097 509.252,750.563 508.021,756.94L508.02,756.948L508.02,756.949L514.36,758.122L514.36,758.121C515.517,751.568 516.553,744.937 517.328,738.244C517.426,737.399 517.521,736.553 517.612,735.708C518.018,732.126 518.366,728.527 518.649,724.918C519.519,713.821 519.839,702.631 519.635,691.501C519.619,690.622 519.599,689.744 519.575,688.867C519.061,666.96 516.476,645.436 512,625.373Z" style="fill:white;"/>
                        </g>
                        <g transform="matrix(-0.273813,1.91869,-1.91869,-0.273813,1808.16,-299.136)">
                            <path d="M507.994,757.113L507.995,757.107C508.884,750.627 509.628,744.073 510.35,737.488C511.157,730.133 511.859,722.734 512.434,715.327C512.732,711.485 512.997,707.647 513.228,703.815L513.233,703.719L513.318,702.268C513.526,698.653 513.7,695.043 513.84,691.441C514.721,668.639 514.329,646.225 512,625.373C515.708,646.008 517.806,668.444 518.156,691.493C518.324,702.51 518.098,713.652 517.462,724.784C516.829,735.871 515.729,746.934 514.399,757.854L514.387,757.948L514.386,757.957L507.992,757.122L507.994,757.113Z" style="fill:white;"/>
                        </g>
                        <g transform="matrix(0.273813,1.91869,1.91869,-0.273813,-784.159,-299.136)">
                            <path d="M507.994,757.113L507.992,757.122L514.386,757.957L514.387,757.948L514.399,757.854C515.729,746.934 516.829,735.871 517.462,724.784C518.098,713.652 518.324,702.51 518.156,691.493C517.806,668.444 515.708,646.008 512,625.373C514.329,646.225 514.721,668.639 513.84,691.441C513.7,695.043 513.526,698.653 513.318,702.268L513.233,703.719L513.228,703.815C512.997,707.646 512.732,711.485 512.434,715.327C511.859,722.734 511.157,730.133 510.35,737.488C509.628,744.073 508.884,750.627 507.995,757.107L507.994,757.113Z" style="fill:white;"/>
                        </g>
                        <g transform="matrix(-3.33067e-16,1.93813,-1.93813,-3.33067e-16,1681.38,-579.141)">
                            <path d="M507.993,755.958C508.048,752.977 508.192,745.826 508.468,736.322C508.73,727.335 509.095,716.249 509.562,704.588C510.207,688.457 511.039,671.257 511.73,656.995C512.616,638.684 513.357,625.269 513.357,625.269C513.357,625.269 513.658,638.701 513.944,657.031C514.167,671.308 514.435,688.526 514.552,704.67C514.636,716.339 514.638,727.432 514.605,736.423C514.558,749.1 514.413,757.588 514.413,757.588L507.966,757.482L507.993,755.958Z" style="fill:white;"/>
                        </g>
                        <g transform="matrix(3.33067e-16,1.93813,1.93813,-3.33067e-16,-657.384,-579.141)">
                            <path d="M514.413,757.588C514.413,757.588 514.558,749.107 514.605,736.44C514.638,727.456 514.636,716.372 514.552,704.711C514.435,688.58 514.167,671.376 513.944,657.11C513.658,638.795 513.357,625.373 513.357,625.373C513.357,625.373 512.616,638.778 511.73,657.074C511.039,671.325 510.207,688.511 509.562,704.63C509.095,716.281 508.73,727.359 508.468,736.339C508.1,749.001 507.966,757.482 507.966,757.482L514.413,757.588Z" style="fill:white;"/>
                        </g>
                    </g>
                    <g transform="matrix(1.13391,0,0,1.13391,-190.379,-103.573)">
                        <circle cx="619.431" cy="542.876" r="317.264" style="fill:none;stroke:white;stroke-width:11.02px;"/>
                    </g>
                    <g transform="matrix(1.021,0,0,1.021,-8.12947,-12.0711)">
                        <path d="M808.516,273.578L210.345,273.578L210.345,871.749L808.516,871.749L808.516,273.578ZM222.588,285.821L222.588,859.506L796.273,859.506L796.273,285.821L222.588,285.821Z" style="fill:white;"/>
                    </g>
                    <g transform="matrix(0.941348,0,0,0.941348,30.8623,17.7648)">
                        <path d="M586.741,274.519C536.324,267.804 485.907,267.928 435.489,274.519C424.315,324.936 424.488,375.353 435.489,425.77C485.907,436.236 536.324,436.372 586.741,425.77C597.579,375.353 598.08,324.936 586.741,274.519ZM579.404,282.511C533.887,276.956 488.367,277.054 442.841,282.523C433.654,327.759 433.826,372.994 442.954,418.232C488.39,426.95 533.822,427.063 579.256,418.25C588.271,373.004 588.711,327.76 579.404,282.511Z" style="fill:white;"/>
                    </g>
                </g>
            </g>
            <g transform="matrix(0.684529,0,0,0.684529,-11.9281,251.303)">
                <path d="M309.926,1052.48C303.038,1052.48 297.045,1051.32 291.946,1048.99C286.847,1046.66 282.911,1043.4 280.138,1039.19C277.365,1034.99 275.979,1030.03 275.979,1024.3L296.105,1024.3C296.105,1027.61 297.38,1030.23 299.93,1032.15C302.479,1034.07 305.945,1035.04 310.328,1035.04C314.532,1035.04 317.82,1034.1 320.19,1032.22C322.561,1030.34 323.746,1027.75 323.746,1024.44C323.746,1021.57 322.851,1019.11 321.062,1017.06C319.273,1015 316.769,1013.61 313.548,1012.9L303.619,1010.62C295.3,1008.65 288.838,1005 284.231,999.68C279.624,994.358 277.321,987.85 277.321,980.157C277.321,971.57 280.228,964.705 286.042,959.561C291.857,954.418 299.728,951.846 309.657,951.846C319.676,951.846 327.615,954.328 333.474,959.293C339.333,964.257 342.262,970.944 342.262,979.352L322.136,979.352C322.136,976.222 321.04,973.762 318.848,971.973C316.657,970.184 313.504,969.289 309.389,969.289C305.543,969.289 302.591,970.161 300.533,971.906C298.476,973.65 297.447,976.132 297.447,979.352C297.447,982.215 298.275,984.652 299.93,986.665C301.584,988.678 303.932,990.042 306.974,990.757L317.44,993.173C326.116,995.141 332.691,998.696 337.164,1003.84C341.636,1008.98 343.872,1015.53 343.872,1023.5C343.872,1029.22 342.464,1034.28 339.646,1038.66C336.828,1043.04 332.892,1046.44 327.838,1048.86C322.784,1051.27 316.813,1052.48 309.926,1052.48Z" style="fill:white;fill-rule:nonzero;"/>
                <path d="M380.369,1051.14L380.369,971.973L355.546,971.973L355.546,953.188L425.318,953.188L425.318,971.973L400.495,971.973L400.495,1051.14L380.369,1051.14Z" style="fill:white;fill-rule:nonzero;"/>
                <path d="M470.938,1052.48C461.009,1052.48 453.16,1049.8 447.39,1044.43C441.62,1039.06 438.736,1031.73 438.736,1022.42L438.736,953.188L458.862,953.188L458.862,1022.29C458.862,1026.4 459.913,1029.56 462.015,1031.75C464.117,1033.94 467.092,1035.04 470.938,1035.04C474.695,1035.04 477.647,1033.94 479.794,1031.75C481.941,1029.56 483.014,1026.4 483.014,1022.29L483.014,953.188L503.141,953.188L503.141,1022.42C503.141,1031.64 500.256,1038.95 494.486,1044.36C488.717,1049.77 480.867,1052.48 470.938,1052.48Z" style="fill:white;fill-rule:nonzero;"/>
                <path d="M519.644,1051.14L519.644,953.188L551.444,953.188C558.243,953.188 564.169,954.485 569.223,957.079C574.277,959.673 578.213,963.318 581.03,968.014C583.848,972.711 585.257,978.234 585.257,984.585L585.257,1019.61C585.257,1025.87 583.848,1031.37 581.03,1036.11C578.213,1040.85 574.277,1044.54 569.223,1047.18C564.169,1049.82 558.243,1051.14 551.444,1051.14L519.644,1051.14ZM539.771,1032.35L551.444,1032.35C555.559,1032.35 558.869,1031.19 561.373,1028.86C563.878,1026.54 565.13,1023.45 565.13,1019.61L565.13,984.585C565.13,980.828 563.878,977.787 561.373,975.461C558.869,973.135 555.559,971.973 551.444,971.973L539.771,971.973L539.771,1032.35Z" style="fill:white;fill-rule:nonzero;"/>
                <path d="M602.432,1051.14L602.432,1033.69L621.887,1033.69L621.887,970.631L602.432,970.631L602.432,953.188L661.469,953.188L661.469,970.631L642.014,970.631L642.014,1033.69L661.469,1033.69L661.469,1051.14L602.432,1051.14Z" style="fill:white;fill-rule:nonzero;"/>
                <path d="M712.457,1052.48C705.927,1052.48 700.247,1051.25 695.416,1048.79C690.586,1046.33 686.851,1042.88 684.212,1038.46C681.574,1034.03 680.254,1028.86 680.254,1022.96L680.254,981.365C680.254,975.461 681.574,970.295 684.212,965.868C686.851,961.44 690.586,957.996 695.416,955.536C700.247,953.076 705.927,951.846 712.457,951.846C719.076,951.846 724.779,953.076 729.564,955.536C734.35,957.996 738.062,961.44 740.701,965.868C743.34,970.295 744.659,975.461 744.659,981.365L744.659,1022.96C744.659,1028.86 743.34,1034.03 740.701,1038.46C738.062,1042.88 734.35,1046.33 729.564,1048.79C724.779,1051.25 719.076,1052.48 712.457,1052.48ZM712.457,1035.04C720.507,1035.04 724.533,1031.01 724.533,1022.96L724.533,981.365C724.533,973.314 720.507,969.289 712.457,969.289C704.406,969.289 700.381,973.314 700.381,981.365L700.381,1022.96C700.381,1031.01 704.406,1035.04 712.457,1035.04Z" style="fill:white;fill-rule:nonzero;"/>
                <path d="M760.09,1051.14L785.986,953.188L800.074,953.188L825.836,1051.14L815.102,1051.14L808.259,1024.57L777.667,1024.57L770.958,1051.14L760.09,1051.14ZM779.814,1015.45L805.978,1015.45L797.659,982.707C796.317,977.25 795.244,972.688 794.439,969.021C793.634,965.353 793.142,962.938 792.963,961.775C792.784,962.938 792.292,965.353 791.487,969.021C790.682,972.688 789.608,977.25 788.267,982.707L779.814,1015.45Z" style="fill:white;fill-rule:nonzero;"/>
                <path d="M846.231,1051.14L846.231,953.188L875.75,953.188C881.564,953.188 886.641,954.351 890.979,956.676C895.318,959.002 898.672,962.245 901.042,966.404C903.413,970.564 904.598,975.461 904.598,981.097C904.598,987.895 902.809,993.642 899.231,998.338C895.653,1003.03 890.778,1006.19 884.606,1007.8L905.806,1051.14L893.193,1051.14L873.603,1008.87L856.831,1008.87L856.831,1051.14L846.231,1051.14ZM856.831,999.211L875.75,999.211C881.207,999.211 885.567,997.556 888.832,994.246C892.097,990.936 893.73,986.508 893.73,980.962C893.73,975.506 892.075,971.123 888.765,967.813C885.456,964.503 881.117,962.849 875.75,962.849L856.831,962.849L856.831,999.211Z" style="fill:white;fill-rule:nonzero;"/>
                <path d="M954.646,1052.48C945.88,1052.48 938.947,1050 933.849,1045.03C928.75,1040.07 926.201,1033.29 926.201,1024.7L926.201,979.621C926.201,971.033 928.75,964.257 933.849,959.293C938.947,954.328 945.88,951.846 954.646,951.846C963.234,951.846 970.099,954.373 975.242,959.427C980.386,964.481 982.958,971.346 982.958,980.023L972.358,980.023C972.358,974.119 970.77,969.535 967.594,966.27C964.419,963.005 960.103,961.373 954.646,961.373C949.011,961.373 944.628,962.96 941.497,966.136C938.366,969.311 936.801,973.806 936.801,979.621L936.801,1024.7C936.801,1030.52 938.366,1035.01 941.497,1038.19C944.628,1041.36 949.011,1042.95 954.646,1042.95C960.192,1042.95 964.531,1041.32 967.661,1038.06C970.792,1034.79 972.358,1030.2 972.358,1024.3L982.958,1024.3C982.958,1032.98 980.386,1039.84 975.242,1044.9C970.099,1049.95 963.234,1052.48 954.646,1052.48Z" style="fill:white;fill-rule:nonzero;"/>
                <path d="M1007.38,1051.14L1007.38,953.188L1017.98,953.188L1017.98,995.588L1050.99,995.588L1050.99,953.188L1061.59,953.188L1061.59,1051.14L1050.99,1051.14L1050.99,1005.38L1017.98,1005.38L1017.98,1051.14L1007.38,1051.14Z" style="fill:white;fill-rule:nonzero;"/>
                <path d="M1088.82,1051.14L1088.82,953.188L1144.1,953.188L1144.1,962.849L1099.42,962.849L1099.42,995.185L1139.41,995.185L1139.41,1004.71L1099.42,1004.71L1099.42,1041.48L1144.1,1041.48L1144.1,1051.14L1088.82,1051.14Z" style="fill:white;fill-rule:nonzero;"/>
                <path d="M1190.26,1051.14L1190.26,962.849L1162.76,962.849L1162.76,953.188L1228.23,953.188L1228.23,962.849L1200.86,962.849L1200.86,1051.14L1190.26,1051.14Z" style="fill:white;fill-rule:nonzero;"/>
                <path d="M1270.63,1051.14L1270.63,1014.24L1240.98,953.188L1251.98,953.188L1272.11,994.514C1273.18,996.661 1274.06,998.54 1274.73,1000.15C1275.4,1001.76 1275.87,1002.97 1276.13,1003.77C1276.4,1003.06 1276.89,1001.87 1277.61,1000.22C1278.33,998.562 1279.18,996.661 1280.16,994.514L1300.02,953.188L1311.02,953.188L1281.37,1014.24L1281.37,1051.14L1270.63,1051.14Z" style="fill:white;fill-rule:nonzero;"/>
                <path d="M1329.27,1051.14L1329.27,953.188L1360,953.188C1369.03,953.188 1376.21,955.76 1381.53,960.903C1386.85,966.046 1389.51,972.957 1389.51,981.633C1389.51,990.221 1386.85,997.108 1381.53,1002.3C1376.21,1007.49 1369.03,1010.08 1360,1010.08L1339.87,1010.08L1339.87,1051.14L1329.27,1051.14ZM1339.87,1000.42L1360,1000.42C1365.63,1000.42 1370.12,998.719 1373.48,995.319C1376.83,991.92 1378.51,987.358 1378.51,981.633C1378.51,975.819 1376.86,971.235 1373.55,967.88C1370.24,964.526 1365.72,962.849 1360,962.849L1339.87,962.849L1339.87,1000.42Z" style="fill:white;fill-rule:nonzero;"/>
                <path d="M1410.85,1051.14L1410.85,953.188L1466.13,953.188L1466.13,962.849L1421.45,962.849L1421.45,995.185L1461.43,995.185L1461.43,1004.71L1421.45,1004.71L1421.45,1041.48L1466.13,1041.48L1466.13,1051.14L1410.85,1051.14Z" style="fill:white;fill-rule:nonzero;"/>
            </g>
        </g>
    </g>
</svg>
