<?xml version="1.0" encoding="UTF-8" standalone="no"?>
<!DOCTYPE svg PUBLIC "-//W3C//DTD SVG 1.1//EN" "http://www.w3.org/Graphics/SVG/1.1/DTD/svg11.dtd">
<svg width="100%" height="100%" viewBox="0 0 1024 492" version="1.1" xmlns="http://www.w3.org/2000/svg" xmlns:xlink="http://www.w3.org/1999/xlink" xml:space="preserve" xmlns:serif="http://www.serif.com/" style="fill-rule:evenodd;clip-rule:evenodd;stroke-linejoin:round;stroke-miterlimit:2;">
    <g id="Artboard1" transform="matrix(1,0,0,0.479994,0,0)">
        <rect x="0" y="0" width="1024" height="1024" style="fill:none;"/>
        <g transform="matrix(0.94731,0,0,1.97359,26.9772,-436.294)">
            <path d="M881.143,676.394C872.428,676.394 865.892,674.026 861.535,669.289C857.177,664.553 855.643,658.169 856.931,650.136L873.982,650.136C873.451,653.622 874.038,656.407 875.743,658.491C877.448,660.575 880.044,661.617 883.53,661.617C887.016,661.617 889.952,660.612 892.339,658.604C894.726,656.596 896.185,653.849 896.716,650.363L903.308,608.078L884.553,608.078L887.167,592.164L922.973,592.164L913.766,650.363C912.932,655.668 911.038,660.271 908.083,664.174C905.127,668.077 901.357,671.089 896.772,673.211C892.188,675.333 886.978,676.394 881.143,676.394ZM611.745,676.28C608.259,676.28 605.645,675.238 603.902,673.154C602.159,671.07 601.553,668.285 602.083,664.799C602.69,661.238 604.186,658.434 606.573,656.388C608.96,654.342 611.897,653.319 615.383,653.319C618.944,653.319 621.597,654.342 623.34,656.388C625.083,658.434 625.651,661.238 625.045,664.799C624.514,668.285 623.055,671.07 620.668,673.154C618.281,675.238 615.307,676.28 611.745,676.28ZM407.14,676.28C401.608,676.28 396.966,675.238 393.215,673.154C389.464,671.07 386.774,668.153 385.144,664.401C383.515,660.65 383.079,656.274 383.837,651.273L389.407,616.035C390.241,611.034 392.059,606.657 394.863,602.906C397.667,599.155 401.286,596.237 405.719,594.154C410.152,592.07 415.134,591.028 420.666,591.028C426.274,591.028 430.953,592.07 434.705,594.154C438.456,596.237 441.146,599.155 442.775,602.906C444.404,606.657 444.802,611.034 443.969,616.035L438.399,651.273C437.641,656.274 435.841,660.65 432.999,664.401C430.158,668.153 426.539,671.07 422.144,673.154C417.749,675.238 412.747,676.28 407.14,676.28ZM339.392,676.28C333.86,676.28 329.162,675.238 325.297,673.154C321.433,671.07 318.667,668.153 316.999,664.401C315.332,660.65 314.878,656.274 315.635,651.273L321.205,616.035C322.039,610.958 323.895,606.562 326.775,602.849C329.655,599.136 333.349,596.237 337.858,594.154C342.367,592.07 347.387,591.028 352.919,591.028C358.527,591.028 363.225,592.07 367.014,594.154C370.803,596.237 373.569,599.136 375.312,602.849C377.055,606.562 377.51,610.958 376.676,616.035L359.626,616.035C360.232,612.701 359.739,610.162 358.148,608.419C356.557,606.676 354.056,605.805 350.646,605.805C347.236,605.805 344.47,606.676 342.348,608.419C340.226,610.162 338.862,612.701 338.256,616.035L332.686,651.273C332.155,654.531 332.686,657.051 334.277,658.832C335.869,660.612 338.369,661.503 341.779,661.503C345.19,661.503 347.955,660.612 350.077,658.832C352.199,657.051 353.525,654.531 354.056,651.273L371.106,651.273C370.348,656.274 368.511,660.65 365.593,664.401C362.676,668.153 358.981,671.07 354.51,673.154C350.039,675.238 345,676.28 339.392,676.28ZM39.759,675.143L52.944,592.164L79.657,592.164C88.068,592.164 94.472,594.078 98.867,597.905C103.262,601.732 104.929,606.904 103.868,613.421C103.338,617.058 101.993,620.241 99.833,622.969C97.673,625.697 95.059,627.819 91.99,629.334C88.921,630.85 85.719,631.608 82.385,631.608L82.271,631.949C85.984,631.873 89.262,632.555 92.104,633.995C94.945,635.435 97.086,637.594 98.526,640.474C99.966,643.354 100.345,646.915 99.663,651.159C98.905,656.009 97.086,660.234 94.207,663.833C91.327,667.433 87.614,670.218 83.067,672.188C78.52,674.158 73.329,675.143 67.494,675.143L39.759,675.143ZM194.236,675.143L204.807,608.078L183.778,608.078L186.393,592.164L245.501,592.164L242.887,608.078L221.858,608.078L211.286,675.143L194.236,675.143ZM921.723,675.143L955.255,592.164L976.853,592.164L984.241,675.143L967.304,675.143L966.281,656.388L946.503,656.388L939.569,675.143L921.723,675.143ZM723.369,675.143L725.756,660.366L742.238,660.366L750.65,606.941L734.168,606.941L736.555,592.164L786.569,592.164L784.182,606.941L767.7,606.941L759.289,660.366L775.771,660.366L773.384,675.143L723.369,675.143ZM245.956,675.143L259.141,592.164L310.293,592.164L307.906,606.714L273.464,606.714L270.508,625.356L300.972,625.356L298.699,639.906L268.235,639.906L264.939,660.594L299.381,660.594L297.107,675.143L245.956,675.143ZM518.763,675.143L531.949,592.164L583.1,592.164L580.713,606.714L546.271,606.714L543.316,625.356L573.78,625.356L571.506,639.906L541.043,639.906L537.746,660.594L572.188,660.594L569.915,675.143L518.763,675.143ZM126.034,675.143L130.695,645.589L115.349,592.164L132.741,592.164L139.22,617.172C139.826,619.672 140.319,622.325 140.698,625.129C141.076,627.932 141.304,630.206 141.38,631.949C141.986,630.206 142.857,627.932 143.994,625.129C145.131,622.325 146.419,619.672 147.859,617.172L161.954,592.164L180.141,592.164L147.745,645.589L143.085,675.143L126.034,675.143ZM448.629,675.143L461.815,592.164L488.755,592.164C494.514,592.164 499.364,593.263 503.304,595.461C507.245,597.658 510.087,600.746 511.829,604.725C513.572,608.703 514.027,613.383 513.194,618.763L508.419,648.431C507.586,653.735 505.653,658.396 502.622,662.412C499.591,666.429 495.764,669.555 491.142,671.79C486.519,674.026 481.328,675.143 475.569,675.143L448.629,675.143ZM652.894,675.143L666.079,592.164L685.744,592.164L697.225,656.388C697.452,653.584 697.718,650.344 698.021,646.669C698.324,642.994 698.665,639.318 699.044,635.643C699.423,631.968 699.802,628.842 700.18,626.265L705.637,592.164L720.641,592.164L707.455,675.143L687.79,675.143L676.423,610.92C676.272,613.345 676.063,616.224 675.798,619.559C675.533,622.893 675.23,626.265 674.889,629.675C674.548,633.085 674.15,636.117 673.695,638.769L667.898,675.143L652.894,675.143ZM789.298,675.143L802.483,592.164L822.148,592.164L833.629,656.388C833.856,653.584 834.121,650.344 834.424,646.669C834.728,642.994 835.069,639.318 835.447,635.643C835.826,631.968 836.205,628.842 836.584,626.265L842.04,592.164L857.045,592.164L843.859,675.143L824.194,675.143L812.827,610.92C812.676,613.345 812.467,616.224 812.202,619.559C811.937,622.893 811.634,626.265 811.293,629.675C810.952,633.085 810.554,636.117 810.099,638.769L804.302,675.143L789.298,675.143ZM409.527,661.503C416.347,661.503 420.287,658.093 421.348,651.273L426.918,616.035C427.979,609.215 425.137,605.805 418.393,605.805C411.497,605.805 407.518,609.215 406.458,616.035L400.888,651.273C399.827,658.093 402.706,661.503 409.527,661.503ZM58.401,661.389L68.972,661.389C72.685,661.389 75.773,660.404 78.236,658.434C80.699,656.464 82.195,653.735 82.726,650.25C83.256,646.764 82.612,644.017 80.794,642.009C78.975,640 76.209,638.996 72.496,638.996L61.924,638.996L58.401,661.389ZM468.18,659.23L478.07,659.23C481.555,659.23 484.511,658.244 486.936,656.274C489.361,654.304 490.838,651.689 491.369,648.431L496.143,618.763C496.598,615.58 495.916,613.004 494.097,611.034C492.278,609.063 489.626,608.078 486.14,608.078L476.251,608.078L468.18,659.23ZM951.504,642.747L965.486,642.747L964.69,622.741C964.614,619.862 964.482,617.001 964.292,614.159C964.103,611.318 963.97,609.101 963.894,607.51C963.364,609.101 962.663,611.299 961.792,614.103C960.92,616.906 959.954,619.748 958.893,622.628L951.504,642.747ZM64.084,625.583L74.087,625.583C77.421,625.583 80.168,624.693 82.328,622.912C84.488,621.131 85.833,618.725 86.363,615.694C86.818,612.587 86.231,610.181 84.601,608.476C82.972,606.771 80.49,605.918 77.156,605.918L67.153,605.918L64.084,625.583Z" style="fill:rgb(26,26,26);fill-rule:nonzero;"/>
        </g>
        <g transform="matrix(1,0,0,2.08336,24.8823,-455.661)">
            <path d="M113.222,538.634C96.368,538.634 82.053,535.46 70.278,529.11C58.503,522.761 50.076,513.872 44.997,502.444C39.917,491.015 38.532,477.682 40.841,462.444L57.811,355.084C60.35,339.615 66.007,326.224 74.78,314.911C83.554,303.598 94.809,294.767 108.547,288.417C122.284,282.068 137.58,278.894 154.434,278.894C171.519,278.894 185.834,282.068 197.378,288.417C208.922,294.767 217.349,303.598 222.659,314.911C227.97,326.224 229.355,339.615 226.815,355.084L174.867,355.084C176.714,344.925 175.213,337.191 170.365,331.881C165.516,326.57 157.897,323.915 147.508,323.915C137.118,323.915 128.691,326.57 122.226,331.881C115.762,337.191 111.606,344.925 109.759,355.084L92.789,462.444C91.173,472.372 92.789,480.048 97.638,485.474C102.486,490.9 110.105,493.613 120.495,493.613C130.884,493.613 139.312,490.9 145.776,485.474C152.241,480.048 156.281,472.372 157.897,462.444L209.846,462.444C207.537,477.682 201.938,491.015 193.049,502.444C184.16,513.872 172.905,522.761 159.283,529.11C145.661,535.46 130.307,538.634 113.222,538.634ZM893.242,538.634C882.622,538.634 874.656,535.46 869.346,529.11C864.036,522.761 862.189,514.276 863.805,503.656C865.652,492.804 870.212,484.262 877.485,478.028C884.757,471.794 893.704,468.677 904.324,468.677C915.176,468.677 923.257,471.794 928.567,478.028C933.877,484.262 935.609,492.804 933.762,503.656C932.146,514.276 927.701,522.761 920.428,529.11C913.156,535.46 904.094,538.634 893.242,538.634ZM709.933,535.171L742.141,330.842L678.071,330.842L686.037,282.357L866.124,282.357L858.158,330.842L794.089,330.842L761.881,535.171L709.933,535.171ZM432.876,535.171L535.041,282.357L600.842,282.357L623.353,535.171L571.751,535.171L568.634,478.028L508.374,478.028L487.249,535.171L432.876,535.171ZM239.283,535.171L279.456,282.357L331.404,282.357L315.82,379.327L374.002,379.327L389.586,282.357L441.534,282.357L401.361,535.171L349.413,535.171L366.383,427.812L308.201,427.812L291.231,535.171L239.283,535.171ZM523.612,436.47L566.21,436.47L563.785,375.517C563.555,366.744 563.151,358.028 562.573,349.37C561.996,340.712 561.592,333.959 561.361,329.11C559.745,333.959 557.609,340.654 554.954,349.197C552.299,357.739 549.355,366.397 546.123,375.171L523.612,436.47Z" style="fill:rgb(26,26,26);fill-rule:nonzero;"/>
        </g>
    </g>
</svg>
